<svg width="48" height="48" viewBox="0 0 48 48" fill="none" xmlns="http://www.w3.org/2000/svg">
<path d="M18 36C18 36 19.8 28.518 24 24" stroke="#F36805" stroke-width="3" stroke-linecap="round" stroke-linejoin="round"/>
<path d="M32.3718 14.4821L33.1198 22.2621C33.6058 27.3081 29.8218 31.8021 24.7758 32.2861C19.8258 32.7621 15.3398 29.1441 14.8638 24.1921C14.6348 21.8147 15.3595 19.4437 16.8785 17.6006C18.3975 15.7576 20.5864 14.5934 22.9638 14.3641L31.2578 13.5641C31.3914 13.5511 31.5262 13.5647 31.6546 13.6039C31.7829 13.6432 31.9023 13.7074 32.0058 13.7929C32.1092 13.8783 32.1949 13.9834 32.2577 14.102C32.3205 14.2206 32.3593 14.3485 32.3718 14.4821Z" stroke="#F36805" stroke-width="3" stroke-linecap="round" stroke-linejoin="round"/>
<path d="M24 44C35.046 44 44 35.046 44 24C44 12.954 35.046 4 24 4C12.954 4 4 12.954 4 24C4 35.046 12.954 44 24 44Z" stroke="#F36805" stroke-width="3" stroke-linecap="round" stroke-linejoin="round"/>
</svg>
